<svg width="48" height="48" viewBox="0 0 48 48" fill="none" xmlns="http://www.w3.org/2000/svg">
<path fill-rule="evenodd" clip-rule="evenodd" d="M15.155 8.85005L6.74634 13.0544L24.027 22.4148L32.4357 18.2104L15.155 8.85005ZM4.59375 15.087V32.9998C4.59375 33.5324 4.89469 34.0194 5.37111 34.2576L22.5936 42.8688V24.8369L4.59375 15.087ZM25.4061 42.869L42.6289 34.2576C43.1053 34.0194 43.4062 33.5324 43.4062 32.9998V15.8696L36.406 19.3697V25C36.406 25.7766 35.7764 26.4062 34.9998 26.4062C34.2231 26.4062 33.5935 25.7766 33.5935 25V20.776L25.4061 24.8697V42.869ZM42.0007 13.4279L24.6289 4.74201C24.233 4.54406 23.767 4.54406 23.3711 4.74201L18.2257 7.31473L35.5064 16.6751L42.0007 13.4279Z" fill="#1E3B58"/>
</svg>
