<svg width="40" height="26" viewBox="0 0 40 26" fill="none" xmlns="http://www.w3.org/2000/svg">
<path d="M6.09844 0.305298H23.8307C24.6316 0.305298 25.2809 0.957746 25.2809 1.76258V22.0674L16.5683 22.2024C16.3123 20.5746 15.2598 19.213 13.8245 18.5335C13.1943 18.2351 12.49 18.0681 11.7462 18.0681C11.0025 18.0681 10.2982 18.2351 9.66801 18.5335C9.2696 18.7221 8.90069 18.9633 8.57011 19.2481V18.7585C8.1027 18.9653 7.58589 19.0802 7.04238 19.0802H6.85751C6.25685 19.0802 5.76991 18.5908 5.76991 17.9872C5.76991 17.3836 6.25685 16.8942 6.85751 16.8942H7.04238C7.74651 16.8942 8.34566 16.4426 8.56867 15.8119L8.56743 14.7185C8.34344 14.0896 7.7452 13.6396 7.04238 13.6396H4.97895C4.37828 13.6396 3.89134 13.1503 3.89134 12.5467C3.89134 11.9431 4.37828 11.4537 4.97895 11.4537H5.03841L5.05289 11.4536H7.11633C7.74845 11.4536 8.29598 11.0896 8.5627 10.5589L8.56103 9.09048C8.2937 8.5615 7.74714 8.19903 7.11633 8.19903H3.17433L3.15991 8.19894H2.9599C2.35924 8.19894 1.8723 7.7096 1.8723 7.10598C1.8723 6.50235 2.35924 6.01301 2.9599 6.01301H5.88125C6.77558 6.01301 7.50058 5.28445 7.50058 4.38571C7.50058 3.48698 6.77558 2.75841 5.88125 2.75841H1.36971C0.769042 2.75841 0.282104 2.26908 0.282104 1.66545C0.282104 1.06183 0.769042 0.572491 1.36971 0.572491H5.88125C6.9231 0.572491 7.86687 0.994437 8.5526 1.67756L8.55207 1.21205L6.09844 0.305298Z" fill="#1E3B58"/>
<path d="M39.7178 15.1169C39.7178 14.7549 39.5837 14.4058 39.3416 14.1376L33.8332 8.03734C33.5584 7.73293 33.1684 7.55934 32.7593 7.55934H27.9878V22.0674H28.6028C28.8943 20.4995 29.928 19.1942 31.3234 18.5335C31.9536 18.2351 32.6579 18.0681 33.4017 18.0681C34.1434 18.0681 34.8459 18.2342 35.4748 18.5311C36.8728 19.191 37.9086 20.4976 38.2006 22.0674H38.2677C39.0685 22.0674 39.7178 21.4149 39.7178 20.6101V15.1169Z" fill="#1E3B58"/>
<path d="M11.7462 20.254C12.9251 20.254 13.9279 21.0112 14.2993 22.068C14.399 22.3515 14.4532 22.6565 14.4532 22.9743C14.4532 24.4766 13.2412 25.6945 11.7462 25.6945C10.2513 25.6945 9.03932 24.4766 9.03932 22.9743C9.03932 22.6565 9.09353 22.3515 9.19316 22.068C9.56462 21.0112 10.5674 20.254 11.7462 20.254Z" fill="#1E3B58"/>
<path d="M33.4017 20.254C34.5805 20.254 35.5833 21.0112 35.9547 22.068C36.0544 22.3515 36.1086 22.6565 36.1086 22.9743C36.1086 24.4766 34.8967 25.6945 33.4017 25.6945C31.9067 25.6945 30.6947 24.4766 30.6947 22.9743C30.6947 22.6565 30.7489 22.3515 30.8486 22.068C31.22 21.0112 32.2228 20.254 33.4017 20.254Z" fill="#1E3B58"/>
</svg>
