<svg width="49" height="49" viewBox="0 0 49 49" fill="none" xmlns="http://www.w3.org/2000/svg">
<path fill-rule="evenodd" clip-rule="evenodd" d="M21.0597 6.50612L10.5 6.5V42.5H38.5L38.4983 23.9434C38.4983 23.5019 38.46 23.0611 38.3873 22.6256C37.6595 18.2677 35.5368 15.3249 31.1788 16.0526L28.5 16.5L28.9474 13.8212C29.0201 13.3857 29.0566 12.9449 29.0566 12.5034C29.0566 8.08514 25.478 6.50612 21.0597 6.50612ZM16.0938 14.5004C16.0938 13.7238 16.7234 13.0942 17.5 13.0942H22.5C23.2767 13.0942 23.9063 13.7238 23.9063 14.5004C23.9063 15.2771 23.2767 15.9067 22.5 15.9067H17.5C16.7234 15.9067 16.0938 15.2771 16.0938 14.5004ZM16.0938 22.5004C16.0938 21.7238 16.7234 21.0942 17.5 21.0942H31.5C32.2767 21.0942 32.9063 21.7238 32.9063 22.5004C32.9063 23.2771 32.2767 23.9067 31.5 23.9067H17.5C16.7234 23.9067 16.0938 23.2771 16.0938 22.5004ZM16.0938 28.5004C16.0938 27.7238 16.7234 27.0942 17.5 27.0942H31.5C32.2767 27.0942 32.9063 27.7238 32.9063 28.5004C32.9063 29.2771 32.2767 29.9067 31.5 29.9067H17.5C16.7234 29.9067 16.0938 29.2771 16.0938 28.5004ZM16.0938 34.5004C16.0938 33.7238 16.7234 33.0942 17.5 33.0942H31.5C32.2767 33.0942 32.9063 33.7238 32.9063 34.5004C32.9063 35.2771 32.2767 35.9067 31.5 35.9067H17.5C16.7234 35.9067 16.0938 35.2771 16.0938 34.5004ZM28.4819 6.83725C33.4832 8.33559 36.8881 11.9261 38.1496 17.0615C37.8022 16.461 37.3881 15.8988 36.8949 15.3958C35.4617 13.9343 33.6025 13.2156 31.4985 13.2517C31.4999 13.186 31.5005 13.1203 31.5005 13.0546C31.5005 10.3618 30.3968 8.2226 28.4819 6.83725Z" fill="#1E3B58"/>
</svg>
